<svg version="1.1" id="Layer_1" xmlns="http://www.w3.org/2000/svg" xmlns:xlink="http://www.w3.org/1999/xlink" x="0px" y="0px"
	 width="100%" viewBox="0 0 260 120" enable-background="new 0 0 260 120" xml:space="preserve">
<path fill="#FEFEFE" opacity="1.000000" stroke="none" 
	d="
M174.000000,121.000000 
	C116.000000,121.000000 58.500008,121.000000 1.000008,121.000000 
	C1.000005,81.000008 1.000005,41.000011 1.000003,1.000013 
	C87.666656,1.000009 174.333313,1.000009 261.000000,1.000004 
	C261.000000,40.999989 261.000000,80.999977 261.000000,120.999985 
	C232.166672,121.000000 203.333328,121.000000 174.000000,121.000000 
M29.026318,59.890858 
	C36.576641,60.929111 32.584099,54.123440 34.727348,51.193653 
	C38.131569,52.519669 41.425533,51.843346 41.260735,48.026634 
	C41.187588,46.332561 37.423580,44.797852 35.334919,43.190800 
	C34.948589,43.574715 34.562263,43.958626 34.175934,44.342537 
	C34.007465,42.065174 33.838993,39.787807 33.694473,37.834229 
	C29.149500,37.834229 24.867599,38.055019 20.618217,37.777653 
	C15.450557,37.440346 11.563157,40.072334 11.054683,45.247105 
	C10.665519,49.207638 10.768154,53.236702 10.967122,57.219543 
	C11.012573,58.129353 12.353798,59.686340 13.100006,59.687145 
	C14.305473,59.688450 15.695663,58.849419 16.658854,57.979073 
	C17.400673,57.308754 17.606401,56.045155 18.344521,55.815979 
	C18.433125,57.533817 18.521729,59.251659 18.616055,61.080444 
	C15.957344,61.261261 11.835785,61.153530 11.772789,61.601788 
	C9.273534,79.385918 11.009690,85.845642 29.730402,84.792206 
	C33.839237,84.560989 34.536671,82.934830 33.528263,79.543030 
	C31.921816,78.988899 30.015676,78.849571 28.948315,77.831146 
	C27.634590,76.577660 26.611940,74.665230 26.290085,72.887909 
	C26.147158,72.098633 28.029219,70.942657 28.885162,70.695564 
	C27.524876,75.812180 27.992981,76.288376 35.598015,77.373573 
	C35.746609,79.599655 35.897717,81.863396 36.042591,84.033745 
	C55.455967,87.237495 61.306759,81.403122 58.383854,61.774620 
	C56.728489,61.774620 55.015427,61.774620 54.003010,61.774620 
	C52.808857,63.845936 51.893303,65.433998 50.549942,66.257309 
	C50.659397,64.214165 50.768856,62.171021 50.887978,59.947418 
	C53.485310,59.798164 56.054951,59.650501 58.918289,59.485966 
	C58.918289,57.658463 58.910625,56.350105 58.919453,55.041862 
	C59.031677,38.411301 56.672367,36.198387 39.982700,36.387081 
	C35.697052,36.435535 34.669167,38.031376 36.019936,42.086903 
	C39.517605,42.497261 43.078022,43.204834 43.197380,47.845425 
	C43.325775,52.837311 39.438629,53.414337 35.475727,54.079334 
	C35.602509,56.038036 35.713558,57.753685 35.828678,59.532188 
	C38.827995,59.707428 41.272049,59.850224 43.946365,60.006474 
	C43.605270,62.234348 43.314224,64.135345 42.294315,65.779839 
	C41.707031,62.026543 40.058670,60.114147 35.979195,62.147320 
	C35.838264,64.646072 35.700439,67.089775 35.536640,69.994041 
	C33.178654,69.994041 31.064507,69.994041 28.751776,69.211655 
	C30.254063,68.462318 31.756351,67.712982 33.428078,66.879135 
	C33.128601,65.256508 32.786423,63.402527 32.444248,61.548546 
	C32.180996,61.828377 31.917742,62.108204 31.654490,62.388035 
	C29.791025,61.261810 27.927559,60.135582 26.598387,59.244217 
	C27.136278,59.465080 27.674171,59.685940 29.026318,59.890858 
M77.544365,59.647598 
	C78.934525,51.479557 85.921288,56.394676 90.705521,55.018337 
	C85.644348,50.648483 81.217476,50.310825 77.446510,53.396969 
	C73.796448,56.384163 72.820221,61.448318 75.109535,65.519951 
	C77.319344,69.450180 82.451797,71.368774 86.771629,69.618309 
	C90.826859,67.975075 92.336884,64.863266 91.374329,59.968430 
	C88.712166,60.232800 86.348213,60.467556 83.984253,60.702309 
	C84.009468,61.278587 84.034691,61.854862 84.059906,62.431137 
	C85.428993,62.916908 86.798080,63.402679 88.167168,63.888451 
	C88.229874,64.396240 88.292580,64.904030 88.355286,65.411812 
	C86.231201,65.885948 83.523735,67.387444 82.121147,66.590988 
	C80.069283,65.425842 78.953087,62.612926 77.544365,59.647598 
M111.171165,51.389503 
	C106.226761,51.083351 102.302948,53.362804 101.347878,57.919315 
	C100.742653,60.806782 101.943336,64.817421 103.753448,67.281815 
	C106.123764,70.508904 110.607910,71.642273 113.979576,69.073792 
	C116.575394,67.096336 119.194809,63.598862 119.509445,60.541203 
	C119.982040,55.948395 116.727188,52.651264 111.171165,51.389503 
M243.169510,51.396053 
	C238.638031,51.031883 234.904587,53.008274 233.685318,57.081852 
	C232.856415,59.851192 233.403229,63.741814 234.825165,66.303917 
	C236.804749,69.870819 240.890167,71.093307 244.893082,69.709816 
	C248.930740,68.314331 251.478165,65.474548 251.375885,60.728363 
	C251.265762,55.618565 248.677399,52.762451 243.169510,51.396053 
M215.828339,67.298508 
	C215.928299,65.985626 216.028259,64.672745 216.132492,63.303692 
	C219.381790,65.198166 219.491608,70.469933 224.946533,69.400696 
	C223.083832,66.807594 221.468750,64.559189 219.853653,62.310780 
	C220.296295,62.337406 220.738937,62.364033 221.181580,62.390659 
	C221.604385,59.765888 223.095383,56.696484 222.226593,54.609322 
	C220.443268,50.325027 216.274384,51.779255 212.578979,52.102806 
	C212.578979,57.412739 212.523071,62.397808 212.635925,67.379051 
	C212.653992,68.176888 213.427109,68.957619 213.851166,69.746262 
	C214.515869,69.192909 215.180588,68.639557 215.828339,67.298508 
M129.069916,64.465965 
	C128.387009,66.055641 127.704094,67.645309 127.021187,69.234985 
	C127.351746,69.528809 127.682304,69.822632 128.012863,70.116463 
	C129.080933,69.273811 130.383499,68.607399 131.173767,67.555946 
	C133.687851,64.210938 137.351120,64.231789 139.847672,67.572075 
	C140.640015,68.632210 142.043274,69.235733 143.166977,70.048210 
	C143.448395,69.656136 143.729828,69.264061 144.011246,68.871986 
	C141.271347,63.050774 138.531433,57.229557 135.484650,50.756336 
	C133.180969,55.671638 131.280121,59.727394 129.069916,64.465965 
M192.302872,55.879707 
	C192.300797,59.704929 192.196091,63.535004 192.376633,67.351585 
	C192.416367,68.191635 193.468643,68.983780 194.054642,69.797997 
	C194.627304,68.965088 195.542099,68.190781 195.696991,67.286316 
	C195.968094,65.703407 195.772598,64.040588 195.772598,62.434139 
	C197.560608,62.049999 199.521423,62.213871 200.281525,61.336967 
	C201.635818,59.774555 203.155365,57.513214 203.011261,55.668728 
	C202.707153,51.775719 199.315750,51.725857 196.182022,51.643353 
	C193.710617,51.578281 191.786224,51.767826 192.302872,55.879707 
M180.811417,51.658184 
	C178.052948,51.658184 175.294495,51.658184 172.322754,51.658184 
	C172.322754,57.163692 172.228271,61.976711 172.397934,66.780396 
	C172.434372,67.811760 173.426193,68.809387 173.977905,69.822556 
	C174.635635,68.757401 175.621674,67.762947 175.870041,66.609634 
	C176.198975,65.082184 175.951080,63.430511 175.951080,62.491322 
	C178.733932,61.584518 180.795105,60.912884 182.856262,60.241241 
	C180.738281,59.263813 178.620300,58.286385 175.091858,56.658043 
	C177.099167,55.880527 178.463806,55.068871 179.918228,54.847832 
	C182.895447,54.395367 182.915298,54.525959 180.811417,51.658184 
M157.517670,51.667366 
	C155.913132,51.667366 154.308594,51.667366 152.362198,51.667366 
	C152.362198,57.223347 152.258530,62.188709 152.455200,67.142143 
	C152.491745,68.062531 153.737000,68.934929 154.424393,69.829475 
	C154.948944,68.957092 155.799789,68.129799 155.927917,67.202629 
	C156.170425,65.447731 155.998016,63.635490 155.998016,62.727058 
	C158.764877,61.583748 160.824249,60.732780 162.883621,59.881817 
	C160.783340,59.080021 158.683044,58.278225 156.090759,57.288605 
	C155.168320,53.748947 158.370316,55.162323 160.263290,54.742970 
	C161.201981,54.535019 162.019775,53.781273 162.892258,53.274456 
	C162.048096,52.737354 161.252945,52.080940 160.341858,51.706810 
	C159.773376,51.473362 159.029907,51.665993 157.517670,51.667366 
z"/>
<path fill="#5EBF8E" opacity="1.000000" stroke="none" 
	d="
M43.023174,66.036339 
	C43.314224,64.135345 43.605270,62.234348 43.946365,60.006474 
	C41.272049,59.850224 38.827995,59.707428 35.828678,59.532188 
	C35.713558,57.753685 35.602509,56.038036 35.475727,54.079334 
	C39.438629,53.414337 43.325775,52.837311 43.197380,47.845425 
	C43.078022,43.204834 39.517605,42.497261 36.019936,42.086903 
	C34.669167,38.031376 35.697052,36.435535 39.982700,36.387081 
	C56.672367,36.198387 59.031677,38.411301 58.919453,55.041862 
	C58.910625,56.350105 58.918289,57.658463 58.918289,59.485966 
	C56.054951,59.650501 53.485310,59.798164 50.887978,59.947418 
	C50.768856,62.171021 50.659397,64.214165 50.784000,66.632126 
	C51.018059,67.006935 51.013451,66.963051 50.691467,66.723244 
	C48.900860,66.987885 47.432236,67.492332 45.986176,67.990311 
	C46.008739,67.983826 46.021420,68.029030 45.985321,67.678543 
	C44.961269,66.875198 43.973316,66.422333 42.987656,65.990288 
	C42.989952,66.011101 43.023174,66.036339 43.023174,66.036339 
z"/>
<path fill="#ED6F68" opacity="1.000000" stroke="none" 
	d="
M28.950357,69.994041 
	C31.064507,69.994041 33.178654,69.994041 35.536640,69.994041 
	C35.700439,67.089775 35.838264,64.646072 35.979195,62.147320 
	C40.058670,60.114147 41.707031,62.026543 42.658745,65.908089 
	C43.023174,66.036339 42.989952,66.011101 42.957527,66.373184 
	C43.957211,67.166527 44.989315,67.597778 46.021420,68.029030 
	C46.021420,68.029030 46.008739,67.983826 46.072567,68.357422 
	C47.762081,68.141693 49.387764,67.552376 51.013451,66.963051 
	C51.013451,66.963051 51.018059,67.006935 50.997906,67.014496 
	C51.893303,65.433998 52.808857,63.845936 54.003010,61.774620 
	C55.015427,61.774620 56.728489,61.774620 58.383854,61.774620 
	C61.306759,81.403122 55.455967,87.237495 36.042591,84.033745 
	C35.897717,81.863396 35.746609,79.599655 35.598015,77.373573 
	C27.992981,76.288376 27.524876,75.812180 28.930874,70.337196 
	C28.976583,69.978828 28.950357,69.994041 28.950357,69.994041 
z"/>
<path fill="#5CD0FC" opacity="1.000000" stroke="none" 
	d="
M28.984348,69.965988 
	C28.029219,70.942657 26.147158,72.098633 26.290085,72.887909 
	C26.611940,74.665230 27.634590,76.577660 28.948315,77.831146 
	C30.015676,78.849571 31.921816,78.988899 33.528263,79.543030 
	C34.536671,82.934830 33.839237,84.560989 29.730402,84.792206 
	C11.009690,85.845642 9.273534,79.385918 11.772789,61.601788 
	C11.835785,61.153530 15.957344,61.261261 18.616055,61.080444 
	C18.521729,59.251659 18.433125,57.533817 18.176500,55.422989 
	C18.008480,55.029999 18.040342,55.064327 18.289145,55.204559 
	C18.704546,55.252617 18.871147,55.160446 19.367950,54.896076 
	C24.081459,52.793240 25.830782,54.775303 26.064095,59.009354 
	C27.927559,60.135582 29.791025,61.261810 31.654490,62.388035 
	C31.917742,62.108204 32.180996,61.828377 32.444248,61.548546 
	C32.786423,63.402527 33.128601,65.256508 33.428078,66.879135 
	C31.756351,67.712982 30.254063,68.462318 28.851067,69.602844 
	C28.950357,69.994041 28.976583,69.978828 28.984348,69.965988 
z"/>
<path fill="#F9D88A" opacity="1.000000" stroke="none" 
	d="
M18.029493,55.037682 
	C17.606401,56.045155 17.400673,57.308754 16.658854,57.979073 
	C15.695663,58.849419 14.305473,59.688450 13.100006,59.687145 
	C12.353798,59.686340 11.012573,58.129353 10.967122,57.219543 
	C10.768154,53.236702 10.665519,49.207638 11.054683,45.247105 
	C11.563157,40.072334 15.450557,37.440346 20.618217,37.777653 
	C24.867599,38.055019 29.149500,37.834229 33.694473,37.834229 
	C33.838993,39.787807 34.007465,42.065174 34.175934,44.342537 
	C34.562263,43.958626 34.948589,43.574715 35.334919,43.190800 
	C37.423580,44.797852 41.187588,46.332561 41.260735,48.026634 
	C41.425533,51.843346 38.131569,52.519669 34.727348,51.193653 
	C32.584099,54.123440 36.576641,60.929111 28.548901,59.508099 
	C26.776100,56.839588 25.923401,53.975349 24.003281,52.505985 
	C23.005548,51.742474 20.121883,53.443447 18.021557,54.286724 
	C17.982086,54.716320 18.011215,54.890324 18.040342,55.064327 
	C18.040342,55.064327 18.008480,55.029999 18.029493,55.037682 
z"/>
<path fill="#1B1B1B" opacity="1.000000" stroke="none" 
	d="
M77.491241,60.074940 
	C78.953087,62.612926 80.069283,65.425842 82.121147,66.590988 
	C83.523735,67.387444 86.231201,65.885948 88.355286,65.411812 
	C88.292580,64.904030 88.229874,64.396240 88.167168,63.888451 
	C86.798080,63.402679 85.428993,62.916908 84.059906,62.431137 
	C84.034691,61.854862 84.009468,61.278587 83.984253,60.702309 
	C86.348213,60.467556 88.712166,60.232800 91.374329,59.968430 
	C92.336884,64.863266 90.826859,67.975075 86.771629,69.618309 
	C82.451797,71.368774 77.319344,69.450180 75.109535,65.519951 
	C72.820221,61.448318 73.796448,56.384163 77.446510,53.396969 
	C81.217476,50.310825 85.644348,50.648483 90.705521,55.018337 
	C85.921288,56.394676 78.934525,51.479557 77.491241,60.074940 
z"/>
<path fill="#181818" opacity="1.000000" stroke="none" 
	d="
M111.546844,51.465164 
	C116.727188,52.651264 119.982040,55.948395 119.509445,60.541203 
	C119.194809,63.598862 116.575394,67.096336 113.979576,69.073792 
	C110.607910,71.642273 106.123764,70.508904 103.753448,67.281815 
	C101.943336,64.817421 100.742653,60.806782 101.347878,57.919315 
	C102.302948,53.362804 106.226761,51.083351 111.546844,51.465164 
M106.791840,65.852058 
	C111.694466,67.683372 115.729248,66.262932 115.823227,62.052498 
	C115.874557,59.752552 114.252007,56.625622 112.377434,55.341400 
	C111.060219,54.439011 107.410583,55.306145 105.923515,56.636356 
	C103.066231,59.192261 103.477142,62.523842 106.791840,65.852058 
z"/>
<path fill="#161616" opacity="1.000000" stroke="none" 
	d="
M243.545151,51.471413 
	C248.677399,52.762451 251.265762,55.618565 251.375885,60.728363 
	C251.478165,65.474548 248.930740,68.314331 244.893082,69.709816 
	C240.890167,71.093307 236.804749,69.870819 234.825165,66.303917 
	C233.403229,63.741814 232.856415,59.851192 233.685318,57.081852 
	C234.904587,53.008274 238.638031,51.031883 243.545151,51.471413 
M244.698853,66.408478 
	C248.473923,64.052452 249.326340,60.824413 246.926315,57.154602 
	C245.040970,54.271782 242.070923,53.567234 239.124619,55.413269 
	C236.061508,57.332470 234.859940,60.672840 237.036652,63.496727 
	C238.410187,65.278648 241.594009,65.665184 244.698853,66.408478 
z"/>
<path fill="#191919" opacity="1.000000" stroke="none" 
	d="
M215.836823,67.692352 
	C215.180588,68.639557 214.515869,69.192909 213.851166,69.746262 
	C213.427109,68.957619 212.653992,68.176888 212.635925,67.379051 
	C212.523071,62.397808 212.578979,57.412739 212.578979,52.102806 
	C216.274384,51.779255 220.443268,50.325027 222.226593,54.609322 
	C223.095383,56.696484 221.604385,59.765888 221.181580,62.390659 
	C220.738937,62.364033 220.296295,62.337406 219.853653,62.310780 
	C221.468750,64.559189 223.083832,66.807594 224.946533,69.400696 
	C219.491608,70.469933 219.381790,65.198166 216.132492,63.303692 
	C216.028259,64.672745 215.928299,65.985626 215.836823,67.692352 
z"/>
<path fill="#1E1E1E" opacity="1.000000" stroke="none" 
	d="
M129.224609,64.124557 
	C131.280121,59.727394 133.180969,55.671638 135.484650,50.756336 
	C138.531433,57.229557 141.271347,63.050774 144.011246,68.871986 
	C143.729828,69.264061 143.448395,69.656136 143.166977,70.048210 
	C142.043274,69.235733 140.640015,68.632210 139.847672,67.572075 
	C137.351120,64.231789 133.687851,64.210938 131.173767,67.555946 
	C130.383499,68.607399 129.080933,69.273811 128.012863,70.116463 
	C127.682304,69.822632 127.351746,69.528809 127.021187,69.234985 
	C127.704094,67.645309 128.387009,66.055641 129.224609,64.124557 
z"/>
<path fill="#2A2A2A" opacity="1.000000" stroke="none" 
	d="
M192.303040,55.435883 
	C191.786224,51.767826 193.710617,51.578281 196.182022,51.643353 
	C199.315750,51.725857 202.707153,51.775719 203.011261,55.668728 
	C203.155365,57.513214 201.635818,59.774555 200.281525,61.336967 
	C199.521423,62.213871 197.560608,62.049999 195.772598,62.434139 
	C195.772598,64.040588 195.968094,65.703407 195.696991,67.286316 
	C195.542099,68.190781 194.627304,68.965088 194.054642,69.797989 
	C193.468643,68.983780 192.416367,68.191635 192.376633,67.351585 
	C192.196091,63.535004 192.300797,59.704929 192.303040,55.435883 
z"/>
<path fill="#303030" opacity="1.000000" stroke="none" 
	d="
M181.220276,51.683556 
	C182.915298,54.525959 182.895447,54.395367 179.918228,54.847832 
	C178.463806,55.068871 177.099167,55.880527 175.091858,56.658043 
	C178.620300,58.286385 180.738281,59.263813 182.856262,60.241245 
	C180.795105,60.912884 178.733932,61.584518 175.951080,62.491322 
	C175.951080,63.430511 176.198975,65.082184 175.870041,66.609634 
	C175.621674,67.762947 174.635635,68.757401 173.977905,69.822556 
	C173.426193,68.809387 172.434372,67.811760 172.397934,66.780396 
	C172.228271,61.976711 172.322754,57.163692 172.322754,51.658184 
	C175.294495,51.658184 178.052948,51.658184 181.220276,51.683556 
z"/>
<path fill="#303030" opacity="1.000000" stroke="none" 
	d="
M157.941315,51.667389 
	C159.029907,51.665993 159.773376,51.473362 160.341858,51.706810 
	C161.252945,52.080940 162.048096,52.737354 162.892258,53.274452 
	C162.019775,53.781273 161.201981,54.535019 160.263290,54.742970 
	C158.370316,55.162323 155.168320,53.748947 156.090759,57.288605 
	C158.683044,58.278225 160.783340,59.080021 162.883621,59.881813 
	C160.824249,60.732780 158.764877,61.583748 155.998016,62.727058 
	C155.998016,63.635490 156.170425,65.447731 155.927917,67.202629 
	C155.799789,68.129799 154.948944,68.957092 154.424393,69.829475 
	C153.737000,68.934929 152.491745,68.062531 152.455200,67.142143 
	C152.258530,62.188709 152.362198,57.223347 152.362198,51.667366 
	C154.308594,51.667366 155.913132,51.667366 157.941315,51.667389 
z"/>
<path fill="#F2F7F0" opacity="1.000000" stroke="none" 
	d="
M18.090157,54.031132 
	C20.121883,53.443447 23.005548,51.742474 24.003281,52.505985 
	C25.923401,53.975349 26.776100,56.839588 28.141773,59.516071 
	C27.674171,59.685940 27.136278,59.465080 26.331242,59.126785 
	C25.830782,54.775303 24.081459,52.793240 19.265087,54.676216 
	C18.651838,54.346069 18.404549,54.146927 18.090157,54.031132 
z"/>
<path fill="#FEFEFE" opacity="1.000000" stroke="none" 
	d="
M50.691467,66.723244 
	C49.387764,67.552376 47.762081,68.141693 46.050003,68.363907 
	C47.432236,67.492332 48.900860,66.987885 50.691467,66.723244 
z"/>
<path fill="#FEFEFE" opacity="1.000000" stroke="none" 
	d="
M45.985321,67.678543 
	C44.989315,67.597778 43.957211,67.166527 42.955235,66.352371 
	C43.973316,66.422333 44.961269,66.875198 45.985321,67.678543 
z"/>
<path fill="#FEFEFE" opacity="1.000000" stroke="none" 
	d="
M18.021557,54.286724 
	C18.404549,54.146927 18.651838,54.346069 18.934887,54.848419 
	C18.871147,55.160446 18.704546,55.252617 18.289145,55.204559 
	C18.011215,54.890324 17.982086,54.716320 18.021557,54.286724 
z"/>
<path fill="#F2F2F2" opacity="1.000000" stroke="none" 
	d="
M106.494720,65.608307 
	C103.477142,62.523842 103.066231,59.192261 105.923515,56.636356 
	C107.410583,55.306145 111.060219,54.439011 112.377434,55.341400 
	C114.252007,56.625622 115.874557,59.752552 115.823227,62.052498 
	C115.729248,66.262932 111.694466,67.683372 106.494720,65.608307 
z"/>
<path fill="#F2F2F2" opacity="1.000000" stroke="none" 
	d="
M244.332336,66.543053 
	C241.594009,65.665184 238.410187,65.278648 237.036652,63.496727 
	C234.859940,60.672840 236.061508,57.332470 239.124619,55.413269 
	C242.070923,53.567234 245.040970,54.271782 246.926315,57.154602 
	C249.326340,60.824413 248.473923,64.052452 244.332336,66.543053 
z"/>
</svg>